# Wavefront OBJ file automatically generated by Tiled2Unity

# Vertices (Count = 169)
v 0 -0.32 0
v -0.32 -0.32 0
v -0.32 0 0
v 0 0 0
v -0.64 -0.32 0
v -0.64 0 0
v -0.96 -0.32 0
v -0.96 0 0
v -1.28 -0.32 0
v -1.28 0 0
v -1.6 -0.32 0
v -1.6 0 0
v -1.92 -0.32 0
v -1.92 0 0
v -2.24 -0.32 0
v -2.24 0 0
v -2.56 -0.32 0
v -2.56 0 0
v -2.88 -0.32 0
v -2.88 0 0
v -3.2 -0.32 0
v -3.2 0 0
v -3.52 -0.32 0
v -3.52 0 0
v -3.84 -0.32 0
v -3.84 0 0
v 0 -0.64 0
v -0.32 -0.64 0
v -0.64 -0.64 0
v -0.96 -0.64 0
v -1.28 -0.64 0
v -1.6 -0.64 0
v -1.92 -0.64 0
v -2.24 -0.64 0
v -2.56 -0.64 0
v -2.88 -0.64 0
v -3.2 -0.64 0
v -3.52 -0.64 0
v -3.84 -0.64 0
v 0 -0.96 0
v -0.32 -0.96 0
v -0.64 -0.96 0
v -0.96 -0.96 0
v -1.28 -0.96 0
v -1.6 -0.96 0
v -1.92 -0.96 0
v -2.24 -0.96 0
v -2.56 -0.96 0
v -2.88 -0.96 0
v -3.2 -0.96 0
v -3.52 -0.96 0
v -3.84 -0.96 0
v 0 -1.28 0
v -0.32 -1.28 0
v -0.64 -1.28 0
v -0.96 -1.28 0
v -1.28 -1.28 0
v -1.6 -1.28 0
v -1.92 -1.28 0
v -2.24 -1.28 0
v -2.56 -1.28 0
v -2.88 -1.28 0
v -3.2 -1.28 0
v -3.52 -1.28 0
v -3.84 -1.28 0
v 0 -1.6 0
v -0.32 -1.6 0
v -0.64 -1.6 0
v -0.96 -1.6 0
v -1.28 -1.6 0
v -1.6 -1.6 0
v -1.92 -1.6 0
v -2.24 -1.6 0
v -2.56 -1.6 0
v -2.88 -1.6 0
v -3.2 -1.6 0
v -3.52 -1.6 0
v -3.84 -1.6 0
v 0 -1.92 0
v -0.32 -1.92 0
v -0.64 -1.92 0
v -0.96 -1.92 0
v -1.28 -1.92 0
v -1.6 -1.92 0
v -1.92 -1.92 0
v -2.24 -1.92 0
v -2.56 -1.92 0
v -2.88 -1.92 0
v -3.2 -1.92 0
v -3.52 -1.92 0
v -3.84 -1.92 0
v 0 -2.24 0
v -0.32 -2.24 0
v -0.64 -2.24 0
v -0.96 -2.24 0
v -1.28 -2.24 0
v -1.6 -2.24 0
v -1.92 -2.24 0
v -2.24 -2.24 0
v -2.56 -2.24 0
v -2.88 -2.24 0
v -3.2 -2.24 0
v -3.52 -2.24 0
v -3.84 -2.24 0
v 0 -2.56 0
v -0.32 -2.56 0
v -0.64 -2.56 0
v -0.96 -2.56 0
v -1.28 -2.56 0
v -1.6 -2.56 0
v -1.92 -2.56 0
v -2.24 -2.56 0
v -2.56 -2.56 0
v -2.88 -2.56 0
v -3.2 -2.56 0
v -3.52 -2.56 0
v -3.84 -2.56 0
v 0 -2.88 0
v -0.32 -2.88 0
v -0.64 -2.88 0
v -0.96 -2.88 0
v -1.28 -2.88 0
v -1.6 -2.88 0
v -1.92 -2.88 0
v -2.24 -2.88 0
v -2.56 -2.88 0
v -2.88 -2.88 0
v -3.2 -2.88 0
v -3.52 -2.88 0
v -3.84 -2.88 0
v 0 -3.2 0
v -0.32 -3.2 0
v -0.64 -3.2 0
v -0.96 -3.2 0
v -1.28 -3.2 0
v -1.6 -3.2 0
v -1.92 -3.2 0
v -2.24 -3.2 0
v -2.56 -3.2 0
v -2.88 -3.2 0
v -3.2 -3.2 0
v -3.52 -3.2 0
v -3.84 -3.2 0
v 0 -3.52 0
v -0.32 -3.52 0
v -0.64 -3.52 0
v -0.96 -3.52 0
v -1.28 -3.52 0
v -1.6 -3.52 0
v -1.92 -3.52 0
v -2.24 -3.52 0
v -2.56 -3.52 0
v -2.88 -3.52 0
v -3.2 -3.52 0
v -3.52 -3.52 0
v -3.84 -3.52 0
v 0 -3.84 0
v -0.32 -3.84 0
v -0.64 -3.84 0
v -0.96 -3.84 0
v -1.28 -3.84 0
v -1.6 -3.84 0
v -1.92 -3.84 0
v -2.24 -3.84 0
v -2.56 -3.84 0
v -2.88 -3.84 0
v -3.2 -3.84 0
v -3.52 -3.84 0
v -3.84 -3.84 0

# Texture cooridinates (Count = 132)
vt 0.3000061 0.9000061
vt 0.3499939 0.9000061
vt 0.3499939 0.9499939
vt 0.3000061 0.9499939
vt 0.1500061 0.9500061
vt 0.1999939 0.9500061
vt 0.1999939 0.9999939
vt 0.1500061 0.9999939
vt 0.2000061 0.9500061
vt 0.2499939 0.9500061
vt 0.2499939 0.9999939
vt 0.2000061 0.9999939
vt 0.1500061 0.9000061
vt 0.1999939 0.9000061
vt 0.1999939 0.9499939
vt 0.1500061 0.9499939
vt 0.2000061 0.9000061
vt 0.2499939 0.9000061
vt 0.2499939 0.9499939
vt 0.2000061 0.9499939
vt 6.103516E-06 0.8000061
vt 0.04999389 0.8000061
vt 0.04999389 0.8499939
vt 6.103516E-06 0.8499939
vt 0.0500061 0.8000061
vt 0.0999939 0.8000061
vt 0.0999939 0.8499939
vt 0.0500061 0.8499939
vt 0.1000061 0.8000061
vt 0.1499939 0.8000061
vt 0.1499939 0.8499939
vt 0.1000061 0.8499939
vt 6.103516E-06 0.7500061
vt 0.04999389 0.7500061
vt 0.04999389 0.7999939
vt 6.103516E-06 0.7999939
vt 0.1000061 0.7500061
vt 0.1499939 0.7500061
vt 0.1499939 0.7999939
vt 0.1000061 0.7999939
vt 6.103516E-06 0.7000061
vt 0.04999389 0.7000061
vt 0.04999389 0.7499939
vt 6.103516E-06 0.7499939
vt 0.0500061 0.7000061
vt 0.0999939 0.7000061
vt 0.0999939 0.7499939
vt 0.0500061 0.7499939
vt 0.1000061 0.7000061
vt 0.1499939 0.7000061
vt 0.1499939 0.7499939
vt 0.1000061 0.7499939
vt 0.5500061 0.8000061
vt 0.5999939 0.8000061
vt 0.5999939 0.8499939
vt 0.5500061 0.8499939
vt 0.6000061 0.8000061
vt 0.6499939 0.8000061
vt 0.6499939 0.8499939
vt 0.6000061 0.8499939
vt 0.6500061 0.8000061
vt 0.6999939 0.8000061
vt 0.6999939 0.8499939
vt 0.6500061 0.8499939
vt 0.5500061 0.7500061
vt 0.5999939 0.7500061
vt 0.5999939 0.7999939
vt 0.5500061 0.7999939
vt 0.6000061 0.7500061
vt 0.6499939 0.7500061
vt 0.6499939 0.7999939
vt 0.6000061 0.7999939
vt 0.6500061 0.7500061
vt 0.6999939 0.7500061
vt 0.6999939 0.7999939
vt 0.6500061 0.7999939
vt 0.5000061 0.8500061
vt 0.5499939 0.8500061
vt 0.5499939 0.8999939
vt 0.5000061 0.8999939
vt 0.5000061 0.8000061
vt 0.5499939 0.8000061
vt 0.5499939 0.8499939
vt 0.5000061 0.8499939
vt 0.4500061 0.7000061
vt 0.4999939 0.7000061
vt 0.4999939 0.7499939
vt 0.4500061 0.7499939
vt 0.9500061 0.9500061
vt 0.9999939 0.9500061
vt 0.9999939 0.9999939
vt 0.9500061 0.9999939
vt 0.4500061 0.6500061
vt 0.4999939 0.6500061
vt 0.4999939 0.6999939
vt 0.4500061 0.6999939
vt 0.5000061 0.7500061
vt 0.5499939 0.7500061
vt 0.5499939 0.7999939
vt 0.5000061 0.7999939
vt 0.9500061 0.9000061
vt 0.9999939 0.9000061
vt 0.9999939 0.9499939
vt 0.9500061 0.9499939
vt 0.4000061 0.7000061
vt 0.4499939 0.7000061
vt 0.4499939 0.7499939
vt 0.4000061 0.7499939
vt 0.4000061 0.6500061
vt 0.4499939 0.6500061
vt 0.4499939 0.6999939
vt 0.4000061 0.6999939
vt 0.3500061 0.7000061
vt 0.3999939 0.7000061
vt 0.3999939 0.7499939
vt 0.3500061 0.7499939
vt 0.3500061 0.6500061
vt 0.3999939 0.6500061
vt 0.3999939 0.6999939
vt 0.3500061 0.6999939
vt 0.9000061 0.8500061
vt 0.9499939 0.8500061
vt 0.9499939 0.8999939
vt 0.9000061 0.8999939
vt 0.9000061 0.8000061
vt 0.9499939 0.8000061
vt 0.9499939 0.8499939
vt 0.9000061 0.8499939
vt 6.103516E-06 0.5000061
vt 0.04999389 0.5000061
vt 0.04999389 0.5499939
vt 6.103516E-06 0.5499939

# Normal
vn 0 0 -1

# Groups (Count = 6)

g mesh_0001
f 1/1/1 2/2/1 3/3/1 4/4/1
f 2/1/1 5/2/1 6/3/1 3/4/1
f 5/1/1 7/2/1 8/3/1 6/4/1
f 7/1/1 9/2/1 10/3/1 8/4/1
f 9/1/1 11/2/1 12/3/1 10/4/1
f 11/1/1 13/2/1 14/3/1 12/4/1
f 13/1/1 15/2/1 16/3/1 14/4/1
f 15/1/1 17/2/1 18/3/1 16/4/1
f 17/1/1 19/2/1 20/3/1 18/4/1
f 19/1/1 21/2/1 22/3/1 20/4/1
f 21/1/1 23/2/1 24/3/1 22/4/1
f 23/1/1 25/2/1 26/3/1 24/4/1
f 27/1/1 28/2/1 2/3/1 1/4/1
f 28/5/1 29/6/1 5/7/1 2/8/1
f 29/9/1 30/10/1 7/11/1 5/12/1
f 30/5/1 31/6/1 9/7/1 7/8/1
f 31/9/1 32/10/1 11/11/1 9/12/1
f 32/5/1 33/6/1 13/7/1 11/8/1
f 33/9/1 34/10/1 15/11/1 13/12/1
f 34/5/1 35/6/1 17/7/1 15/8/1
f 35/9/1 36/10/1 19/11/1 17/12/1
f 36/5/1 37/6/1 21/7/1 19/8/1
f 37/9/1 38/10/1 23/11/1 21/12/1
f 38/1/1 39/2/1 25/3/1 23/4/1
f 40/1/1 41/2/1 28/3/1 27/4/1
f 41/13/1 42/14/1 29/15/1 28/16/1
f 42/17/1 43/18/1 30/19/1 29/20/1
f 43/13/1 44/14/1 31/15/1 30/16/1
f 44/17/1 45/18/1 32/19/1 31/20/1
f 45/13/1 46/14/1 33/15/1 32/16/1
f 46/17/1 47/18/1 34/19/1 33/20/1
f 47/13/1 48/14/1 35/15/1 34/16/1
f 48/17/1 49/18/1 36/19/1 35/20/1
f 49/13/1 50/14/1 37/15/1 36/16/1
f 50/17/1 51/18/1 38/19/1 37/20/1
f 51/1/1 52/2/1 39/3/1 38/4/1
f 53/1/1 54/2/1 41/3/1 40/4/1
f 54/5/1 55/6/1 42/7/1 41/8/1
f 55/9/1 56/10/1 43/11/1 42/12/1
f 56/5/1 57/6/1 44/7/1 43/8/1
f 57/9/1 58/10/1 45/11/1 44/12/1
f 58/5/1 59/6/1 46/7/1 45/8/1
f 59/9/1 60/10/1 47/11/1 46/12/1
f 60/5/1 61/6/1 48/7/1 47/8/1
f 61/9/1 62/10/1 49/11/1 48/12/1
f 62/5/1 63/6/1 50/7/1 49/8/1
f 63/9/1 64/10/1 51/11/1 50/12/1
f 64/1/1 65/2/1 52/3/1 51/4/1
f 66/1/1 67/2/1 54/3/1 53/4/1
f 67/13/1 68/14/1 55/15/1 54/16/1
f 68/17/1 69/18/1 56/19/1 55/20/1
f 69/13/1 70/14/1 57/15/1 56/16/1
f 70/17/1 71/18/1 58/19/1 57/20/1
f 71/13/1 72/14/1 59/15/1 58/16/1
f 72/17/1 73/18/1 60/19/1 59/20/1
f 73/13/1 74/14/1 61/15/1 60/16/1
f 74/17/1 75/18/1 62/19/1 61/20/1
f 75/13/1 76/14/1 63/15/1 62/16/1
f 76/17/1 77/18/1 64/19/1 63/20/1
f 77/1/1 78/2/1 65/3/1 64/4/1
f 79/1/1 80/2/1 67/3/1 66/4/1
f 80/5/1 81/6/1 68/7/1 67/8/1
f 81/9/1 82/10/1 69/11/1 68/12/1
f 82/5/1 83/6/1 70/7/1 69/8/1
f 83/9/1 84/10/1 71/11/1 70/12/1
f 84/5/1 85/6/1 72/7/1 71/8/1
f 85/9/1 86/10/1 73/11/1 72/12/1
f 86/5/1 87/6/1 74/7/1 73/8/1
f 87/9/1 88/10/1 75/11/1 74/12/1
f 88/5/1 89/6/1 76/7/1 75/8/1
f 89/9/1 90/10/1 77/11/1 76/12/1
f 90/1/1 91/2/1 78/3/1 77/4/1
f 92/1/1 93/2/1 80/3/1 79/4/1
f 93/13/1 94/14/1 81/15/1 80/16/1
f 94/17/1 95/18/1 82/19/1 81/20/1
f 95/13/1 96/14/1 83/15/1 82/16/1
f 96/17/1 97/18/1 84/19/1 83/20/1
f 97/13/1 98/14/1 85/15/1 84/16/1
f 98/17/1 99/18/1 86/19/1 85/20/1
f 99/13/1 100/14/1 87/15/1 86/16/1
f 100/17/1 101/18/1 88/19/1 87/20/1
f 101/13/1 102/14/1 89/15/1 88/16/1
f 102/17/1 103/18/1 90/19/1 89/20/1
f 103/1/1 104/2/1 91/3/1 90/4/1
f 105/1/1 106/2/1 93/3/1 92/4/1
f 106/5/1 107/6/1 94/7/1 93/8/1
f 107/9/1 108/10/1 95/11/1 94/12/1
f 108/5/1 109/6/1 96/7/1 95/8/1
f 109/9/1 110/10/1 97/11/1 96/12/1
f 110/5/1 111/6/1 98/7/1 97/8/1
f 111/9/1 112/10/1 99/11/1 98/12/1
f 112/5/1 113/6/1 100/7/1 99/8/1
f 113/9/1 114/10/1 101/11/1 100/12/1
f 114/5/1 115/6/1 102/7/1 101/8/1
f 115/9/1 116/10/1 103/11/1 102/12/1
f 116/1/1 117/2/1 104/3/1 103/4/1
f 118/1/1 119/2/1 106/3/1 105/4/1
f 119/13/1 120/14/1 107/15/1 106/16/1
f 120/17/1 121/18/1 108/19/1 107/20/1
f 121/13/1 122/14/1 109/15/1 108/16/1
f 122/17/1 123/18/1 110/19/1 109/20/1
f 123/13/1 124/14/1 111/15/1 110/16/1
f 124/17/1 125/18/1 112/19/1 111/20/1
f 125/13/1 126/14/1 113/15/1 112/16/1
f 126/17/1 127/18/1 114/19/1 113/20/1
f 127/13/1 128/14/1 115/15/1 114/16/1
f 128/17/1 129/18/1 116/19/1 115/20/1
f 129/1/1 130/2/1 117/3/1 116/4/1
f 131/1/1 132/2/1 119/3/1 118/4/1
f 132/5/1 133/6/1 120/7/1 119/8/1
f 133/9/1 134/10/1 121/11/1 120/12/1
f 134/5/1 135/6/1 122/7/1 121/8/1
f 135/9/1 136/10/1 123/11/1 122/12/1
f 136/5/1 137/6/1 124/7/1 123/8/1
f 137/9/1 138/10/1 125/11/1 124/12/1
f 138/5/1 139/6/1 126/7/1 125/8/1
f 139/9/1 140/10/1 127/11/1 126/12/1
f 140/5/1 141/6/1 128/7/1 127/8/1
f 141/9/1 142/10/1 129/11/1 128/12/1
f 142/1/1 143/2/1 130/3/1 129/4/1
f 144/1/1 145/2/1 132/3/1 131/4/1
f 145/13/1 146/14/1 133/15/1 132/16/1
f 146/17/1 147/18/1 134/19/1 133/20/1
f 147/13/1 148/14/1 135/15/1 134/16/1
f 148/17/1 149/18/1 136/19/1 135/20/1
f 149/13/1 150/14/1 137/15/1 136/16/1
f 150/17/1 151/18/1 138/19/1 137/20/1
f 151/13/1 152/14/1 139/15/1 138/16/1
f 152/17/1 153/18/1 140/19/1 139/20/1
f 153/13/1 154/14/1 141/15/1 140/16/1
f 154/17/1 155/18/1 142/19/1 141/20/1
f 155/1/1 156/2/1 143/3/1 142/4/1
f 157/1/1 158/2/1 145/3/1 144/4/1
f 158/1/1 159/2/1 146/3/1 145/4/1
f 159/1/1 160/2/1 147/3/1 146/4/1
f 160/1/1 161/2/1 148/3/1 147/4/1
f 161/1/1 162/2/1 149/3/1 148/4/1
f 162/1/1 163/2/1 150/3/1 149/4/1
f 163/1/1 164/2/1 151/3/1 150/4/1
f 164/1/1 165/2/1 152/3/1 151/4/1
f 165/1/1 166/2/1 153/3/1 152/4/1
f 166/1/1 167/2/1 154/3/1 153/4/1
f 167/1/1 168/2/1 155/3/1 154/4/1
f 168/1/1 169/2/1 156/3/1 155/4/1

g mesh_0002
f 1/21/1 2/22/1 3/23/1 4/24/1
f 2/25/1 5/26/1 6/27/1 3/28/1
f 5/25/1 7/26/1 8/27/1 6/28/1
f 7/25/1 9/26/1 10/27/1 8/28/1
f 9/25/1 11/26/1 12/27/1 10/28/1
f 11/25/1 13/26/1 14/27/1 12/28/1
f 13/25/1 15/26/1 16/27/1 14/28/1
f 15/25/1 17/26/1 18/27/1 16/28/1
f 17/25/1 19/26/1 20/27/1 18/28/1
f 19/25/1 21/26/1 22/27/1 20/28/1
f 21/25/1 23/26/1 24/27/1 22/28/1
f 23/29/1 25/30/1 26/31/1 24/32/1
f 27/33/1 28/34/1 2/35/1 1/36/1
f 38/37/1 39/38/1 25/39/1 23/40/1
f 40/33/1 41/34/1 28/35/1 27/36/1
f 51/37/1 52/38/1 39/39/1 38/40/1
f 53/33/1 54/34/1 41/35/1 40/36/1
f 64/37/1 65/38/1 52/39/1 51/40/1
f 66/33/1 67/34/1 54/35/1 53/36/1
f 77/37/1 78/38/1 65/39/1 64/40/1
f 79/33/1 80/34/1 67/35/1 66/36/1
f 90/37/1 91/38/1 78/39/1 77/40/1
f 92/33/1 93/34/1 80/35/1 79/36/1
f 103/37/1 104/38/1 91/39/1 90/40/1
f 105/33/1 106/34/1 93/35/1 92/36/1
f 116/37/1 117/38/1 104/39/1 103/40/1
f 118/33/1 119/34/1 106/35/1 105/36/1
f 129/37/1 130/38/1 117/39/1 116/40/1
f 131/33/1 132/34/1 119/35/1 118/36/1
f 142/37/1 143/38/1 130/39/1 129/40/1
f 144/33/1 145/34/1 132/35/1 131/36/1
f 155/37/1 156/38/1 143/39/1 142/40/1
f 157/41/1 158/42/1 145/43/1 144/44/1
f 158/45/1 159/46/1 146/47/1 145/48/1
f 159/45/1 160/46/1 147/47/1 146/48/1
f 160/45/1 161/46/1 148/47/1 147/48/1
f 161/45/1 162/46/1 149/47/1 148/48/1
f 162/45/1 163/46/1 150/47/1 149/48/1
f 163/45/1 164/46/1 151/47/1 150/48/1
f 164/45/1 165/46/1 152/47/1 151/48/1
f 165/45/1 166/46/1 153/47/1 152/48/1
f 166/45/1 167/46/1 154/47/1 153/48/1
f 167/45/1 168/46/1 155/47/1 154/48/1
f 168/49/1 169/50/1 156/51/1 155/52/1

g mesh_0003
f 31/53/1 32/54/1 11/55/1 9/56/1
f 32/57/1 33/58/1 13/59/1 11/60/1
f 33/61/1 34/62/1 15/63/1 13/64/1
f 44/65/1 45/66/1 32/67/1 31/68/1
f 45/69/1 46/70/1 33/71/1 32/72/1
f 46/73/1 47/74/1 34/75/1 33/76/1
f 62/77/1 63/78/1 50/79/1 49/80/1
f 75/81/1 76/82/1 63/83/1 62/84/1
f 79/85/1 80/86/1 67/87/1 66/88/1
f 88/81/1 89/82/1 76/83/1 75/84/1
f 89/89/1 90/90/1 77/91/1 76/92/1
f 92/93/1 93/94/1 80/95/1 79/96/1
f 101/97/1 102/98/1 89/99/1 88/100/1
f 102/101/1 103/102/1 90/103/1 89/104/1

g mesh_0004
f 62/105/1 63/106/1 50/107/1 49/108/1
f 75/109/1 76/110/1 63/111/1 62/112/1

g mesh_0005
f 62/113/1 63/114/1 50/115/1 49/116/1
f 75/117/1 76/118/1 63/119/1 62/120/1

g mesh_0006
f 88/121/1 89/122/1 76/123/1 75/124/1
f 101/125/1 102/126/1 89/127/1 88/128/1

g mesh_0007
f 1/129/1 2/130/1 3/131/1 4/132/1
f 2/129/1 5/130/1 6/131/1 3/132/1
f 5/129/1 7/130/1 8/131/1 6/132/1
f 7/129/1 9/130/1 10/131/1 8/132/1
f 9/129/1 11/130/1 12/131/1 10/132/1
f 11/129/1 13/130/1 14/131/1 12/132/1
f 13/129/1 15/130/1 16/131/1 14/132/1
f 15/129/1 17/130/1 18/131/1 16/132/1
f 17/129/1 19/130/1 20/131/1 18/132/1
f 19/129/1 21/130/1 22/131/1 20/132/1
f 21/129/1 23/130/1 24/131/1 22/132/1
f 23/129/1 25/130/1 26/131/1 24/132/1
f 27/129/1 28/130/1 2/131/1 1/132/1
f 38/129/1 39/130/1 25/131/1 23/132/1
f 40/129/1 41/130/1 28/131/1 27/132/1
f 44/129/1 45/130/1 32/131/1 31/132/1
f 45/129/1 46/130/1 33/131/1 32/132/1
f 46/129/1 47/130/1 34/131/1 33/132/1
f 51/129/1 52/130/1 39/131/1 38/132/1
f 53/129/1 54/130/1 41/131/1 40/132/1
f 64/129/1 65/130/1 52/131/1 51/132/1
f 66/129/1 67/130/1 54/131/1 53/132/1
f 75/129/1 76/130/1 63/131/1 62/132/1
f 77/129/1 78/130/1 65/131/1 64/132/1
f 88/129/1 89/130/1 76/131/1 75/132/1
f 90/129/1 91/130/1 78/131/1 77/132/1
f 101/129/1 102/130/1 89/131/1 88/132/1
f 102/129/1 103/130/1 90/131/1 89/132/1
f 103/129/1 104/130/1 91/131/1 90/132/1
f 105/129/1 106/130/1 93/131/1 92/132/1
f 116/129/1 117/130/1 104/131/1 103/132/1
f 118/129/1 119/130/1 106/131/1 105/132/1
f 129/129/1 130/130/1 117/131/1 116/132/1
f 131/129/1 132/130/1 119/131/1 118/132/1
f 142/129/1 143/130/1 130/131/1 129/132/1
f 144/129/1 145/130/1 132/131/1 131/132/1
f 155/129/1 156/130/1 143/131/1 142/132/1
f 157/129/1 158/130/1 145/131/1 144/132/1
f 158/129/1 159/130/1 146/131/1 145/132/1
f 159/129/1 160/130/1 147/131/1 146/132/1
f 160/129/1 161/130/1 148/131/1 147/132/1
f 161/129/1 162/130/1 149/131/1 148/132/1
f 162/129/1 163/130/1 150/131/1 149/132/1
f 163/129/1 164/130/1 151/131/1 150/132/1
f 164/129/1 165/130/1 152/131/1 151/132/1
f 165/129/1 166/130/1 153/131/1 152/132/1
f 166/129/1 167/130/1 154/131/1 153/132/1
f 167/129/1 168/130/1 155/131/1 154/132/1
f 168/129/1 169/130/1 156/131/1 155/132/1

